HIERARCHY
ROOT Hips
{
    OFFSET 0.000000 0.000000 0.000000
    CHANNELS 6 Xposition Yposition Zposition Zrotation Xrotation Yrotation
    JOINT Spine
    {
        OFFSET -0.000000 7.236184 0.000000
        CHANNELS 3 Zrotation Xrotation Yrotation
        JOINT Spine1
        {
            OFFSET -0.000000 20.420147 0.000000
            CHANNELS 3 Zrotation Xrotation Yrotation
            JOINT Neck
            {
                OFFSET -0.000000 20.336288 1.848754
                CHANNELS 3 Zrotation Xrotation Yrotation
                JOINT Head
                {
                    OFFSET -0.000000 12.354461 -1.764923
                    CHANNELS 3 Zrotation Xrotation Yrotation
                    End Site
                    {
                        OFFSET -0.000000 22.061537 0.000000
                    }
                }
            }
            JOINT LeftShoulder
            {
                OFFSET 3.573296 18.396038 -0.314103
                CHANNELS 3 Zrotation Xrotation Yrotation
                JOINT LeftArm
                {
                    OFFSET 10.880760 0.000000 0.000000
                    CHANNELS 3 Zrotation Xrotation Yrotation
                    JOINT LeftForeArm
                    {
                        OFFSET 27.185530 0.000000 0.000000
                        CHANNELS 3 Zrotation Xrotation Yrotation
                        JOINT LeftHand
                        {
                            OFFSET 27.825975 0.000000 0.000000
                            CHANNELS 3 Zrotation Xrotation Yrotation
                            End Site
                            {
                                OFFSET 13.236923 0.000000 0.000000
                            }
                        }
                    }
                }
            }
            JOINT RightShoulder
            {
                OFFSET -3.474926 18.396038 -0.314103
                CHANNELS 3 Zrotation Xrotation Yrotation
                JOINT RightArm
                {
                    OFFSET -10.880760 0.000000 0.000000
                    CHANNELS 3 Zrotation Xrotation Yrotation
                    JOINT RightForeArm
                    {
                        OFFSET -27.185530 0.000000 0.000000
                        CHANNELS 3 Zrotation Xrotation Yrotation
                        JOINT RightHand
                        {
                            OFFSET -27.825975 0.000000 0.000000
                            CHANNELS 3 Zrotation Xrotation Yrotation
                            End Site
                            {
                                OFFSET -13.236923 0.000000 0.000000
                            }
                        }
                    }
                }
            }
        }
    }
    JOINT LeftUpLeg
    {
        OFFSET 8.824615 0.000000 0.000000
        CHANNELS 3 Zrotation Xrotation Yrotation
        JOINT LeftLeg
        {
            OFFSET -0.000000 -35.111282 0.000000
            CHANNELS 3 Zrotation Xrotation Yrotation
            JOINT LeftFoot
            {
                OFFSET -0.000000 -42.324711 0.000000
                CHANNELS 3 Zrotation Xrotation Yrotation
                JOINT LeftToeBase
                {
                    OFFSET -0.000000 -5.735999 13.236923
                    CHANNELS 3 Zrotation Xrotation Yrotation
                    End Site
                    {
                        OFFSET -0.000000 0.000000 3.529846
                    }
                }
            }
        }
    }
    JOINT RightUpLeg
    {
        OFFSET -8.824615 0.000000 0.000000
        CHANNELS 3 Zrotation Xrotation Yrotation
        JOINT RightLeg
        {
            OFFSET -0.000000 -35.111282 0.000000
            CHANNELS 3 Zrotation Xrotation Yrotation
            JOINT RightFoot
            {
                OFFSET -0.000000 -42.324711 0.000000
                CHANNELS 3 Zrotation Xrotation Yrotation
                JOINT RightToeBase
                {
                    OFFSET -0.000000 -5.735999 13.236923
                    CHANNELS 3 Zrotation Xrotation Yrotation
                    End Site
                    {
                        OFFSET -0.000000 0.000000 3.529846
                    }
                }
            }
        }
    }
}
MOTION
Frames:    9
Frame Time:    0.008333
-1.547400    82.673302    95.828156    3.067556    -1.133229    -173.671738    4.301476    -9.489838    3.731331    -11.702936    1.769422    3.555483    11.830023    7.461439    -11.583967    7.633221    9.555450    -12.595976    4.031587    17.217129    -4.246477    -55.521561    37.595745    -24.147142    -3.043873    -3.439399    -10.619724    18.183155    -3.093977    3.928916    -17.075623    -4.222774    2.202185    21.481636    -38.428967    28.143211    -27.607956    -20.476429    15.412697    -44.157166    -10.683517    -15.589963    7.229811    0.245919    0.015741    -3.065376    5.988478    -1.755904    -0.618967    -7.164340    -8.010559    0.348558    0.712771    -0.385871    1.321126    4.337889    -0.757782    11.530066    6.798967    -15.459579    0.000000    0.000000    0.000000    0.000000    0.000000    0.000000    
-1.557692    82.668877    95.821800    3.050604    -1.112633    -173.771393    4.324504    -9.522099    3.697285    -11.587627    1.807433    3.520360    11.824963    7.365274    -11.430922    7.355355    9.591645    -12.464267    4.006461    17.221212    -4.238393    -55.741394    37.611420    -23.963388    -3.072170    -3.545906    -10.729388    18.053078    -3.211927    3.921180    -17.021692    -4.153954    2.246014    21.452530    -38.020470    28.342554    -28.061220    -20.700066    15.885650    -44.001740    -10.740741    -15.637772    7.200175    0.293257    0.021906    -3.059864    5.990467    -1.660094    -0.619109    -7.179324    -8.021620    0.347948    0.718796    -0.385192    1.288800    4.348284    -0.679658    11.535183    6.820370    -15.436522    0.000000    0.000000    0.000000    0.000000    0.000000    0.000000    
-1.568961    82.663788    95.815239    3.031942    -1.088185    -173.910767    4.358964    -9.554511    3.668152    -11.463705    1.852019    3.489608    11.821841    7.259520    -11.258741    7.049970    9.632279    -12.315427    3.985481    17.220123    -4.230832    -55.966202    37.650230    -23.779747    -3.104451    -3.651679    -10.833280    17.902754    -3.328661    3.922482    -16.983187    -4.079622    2.306721    21.345892    -37.467709    28.532135    -28.583065    -20.923407    16.477940    -43.852413    -10.775649    -15.627192    7.164634    0.350564    0.037246    -3.050885    5.997459    -1.529982    -0.618962    -7.199764    -8.038634    0.347455    0.726685    -0.384641    1.250884    4.356938    -0.590722    11.538272    6.851223    -15.393394    0.000000    0.000000    0.000000    0.000000    0.000000    0.000000    
-1.581024    82.658211    95.808670    3.011854    -1.060380    -174.086670    4.405332    -9.585876    3.644912    -11.334335    1.901675    3.464070    11.821412    7.145853    -11.070289    6.721838    9.674322    -12.151865    3.969614    17.215385    -4.223402    -56.191502    37.709076    -23.601923    -3.140524    -3.756210    -10.930243    17.733025    -3.443776    3.932127    -16.960449    -4.002246    2.382060    21.169544    -36.795895    28.713919    -29.166399    -21.141302    17.184547    -43.709103    -10.782371    -15.556805    7.123576    0.416158    0.061768    -3.038499    6.009807    -1.368903    -0.618575    -7.225249    -8.061189    0.347000    0.736513    -0.384130    1.207916    4.363710    -0.493167    11.539392    6.890738    -15.330755    0.000000    0.000000    0.000000    0.000000    0.000000    0.000000    
-1.593740    82.652298    95.802284    2.990553    -1.029826    -174.295883    4.463901    -9.615135    3.628175    -11.201972    1.954744    3.444260    11.824168    7.025280    -10.867817    6.374712    9.715543    -11.975508    3.958979    17.207966    -4.215931    -56.414097    37.784950    -23.433270    -3.180177    -3.860006    -11.019853    17.545267    -3.557846    3.949226    -16.953306    -3.924066    2.469456    20.931038    -36.027950    28.890551    -29.804764    -21.348606    18.004675    -43.570908    -10.754200    -15.424314    7.077348    0.488290    0.095531    -3.022846    6.027901    -1.180241    -0.617914    -7.255501    -8.088807    0.346539    0.748500    -0.383613    1.160368    4.368385    -0.388945    11.538556    6.938085    -15.249384    0.000000    0.000000    0.000000    0.000000    0.000000    0.000000    
-1.606974    82.646194    95.796204    2.968227    -0.997296    -174.535110    4.534821    -9.641840    3.618198    -11.068818    2.010078    3.430331    11.830366    6.899384    -10.653220    6.012189    9.752978    -11.787831    3.954438    17.199253    -4.208114    -56.632023    37.873863    -23.277294    -3.222846    -3.963422    -11.101576    17.341854    -3.671250    3.973004    -16.961554    -3.847008    2.566584    20.637022    -35.184433    29.063942    -30.492496    -21.540274    18.939266    -43.435459    -10.684140    -15.226377    7.026268    0.565224    0.138416    -3.004161    6.051723    -0.967761    -0.616949    -7.289991    -8.120621    0.346036    0.762325    -0.383045    1.108757    4.370583    -0.280007    11.535603    6.992265    -15.150575    0.000000    0.000000    0.000000    0.000000    0.000000    0.000000    
-1.620346    82.640205    95.790642    2.945553    -0.964129    -174.796112    4.616680    -9.665027    3.615019    -10.939037    2.065330    3.422276    11.840023    6.771023    -10.432064    5.643840    9.784519    -11.593768    3.956070    17.190479    -4.199530    -56.839626    37.970535    -23.138977    -3.267024    -4.065160    -11.173945    17.130022    -3.782503    4.002273    -16.984234    -3.774209    2.668920    20.298521    -34.298187    29.232103    -31.210909    -21.708679    19.973080    -43.302269    -10.567262    -14.963586    6.971837    0.643988    0.189348    -2.983055    6.080598    -0.739200    -0.615828    -7.327638    -8.155394    0.345408    0.778118    -0.382340    1.054672    4.370081    -0.170055    11.530617    7.051267    -15.037678    0.000000    0.000000    0.000000    0.000000    0.000000    0.000000    
-1.633875    82.634392    95.785667    2.922427    -0.930950    -175.077240    4.709604    -9.684956    3.617991    -10.812556    2.119986    3.419450    11.853380    6.639981    -10.203603    5.268427    9.808775    -11.392622    3.964083    17.182280    -4.189972    -57.038586    38.071640    -23.017981    -3.312678    -4.166551    -11.237679    16.912510    -3.892979    4.036067    -17.020670    -3.706124    2.774938    19.917082    -33.374744    29.396654    -31.962412    -21.852943    21.116438    -43.166183    -10.397704    -14.631737    6.914039    0.723535    0.248158    -2.959930    6.114233    -0.496365    -0.614567    -7.367964    -8.192677    0.344500    0.795818    -0.381323    0.998004    4.366546    -0.059454    11.523774    7.114439    -14.911537    0.000000    0.000000    0.000000    0.000000    0.000000    0.000000    
-1.647336    82.628899    95.781334    2.899227    -0.898973    -175.372314    4.812274    -9.701824    3.626394    -10.691266    2.173003    3.421111    11.870344    6.507819    -9.970618    4.890877    9.824132    -11.186880    3.978607    17.175524    -4.179463    -57.227074    38.172676    -22.916166    -3.358177    -4.266985    -11.292591    16.696068    -4.001820    4.073460    -17.069576    -3.644374    2.881776    19.497059    -32.430504    29.554482    -32.738071    -21.970379    22.361721    -43.024380    -10.172045    -14.231583    6.853964    0.801809    0.313668    -2.935436    6.151642    -0.244861    -0.612758    -7.410181    -8.231293    0.343325    0.815262    -0.380009    0.939739    4.359804    0.049847    11.515324    7.179889    -14.775108    0.000000    0.000000    0.000000    0.000000    0.000000    0.000000    
